<?xml version="1.0" encoding="UTF-8" standalone="no"?>
<!-- Created with Inkscape (http://www.inkscape.org/) -->

<svg
   xmlns:dc="http://purl.org/dc/elements/1.1/"
   xmlns:cc="http://creativecommons.org/ns#"
   xmlns:rdf="http://www.w3.org/1999/02/22-rdf-syntax-ns#"
   xmlns:svg="http://www.w3.org/2000/svg"
   xmlns="http://www.w3.org/2000/svg"
   xmlns:xlink="http://www.w3.org/1999/xlink"
   xmlns:sodipodi="http://sodipodi.sourceforge.net/DTD/sodipodi-0.dtd"
   xmlns:inkscape="http://www.inkscape.org/namespaces/inkscape"
   width="421"
   height="275"
   id="svg2"
   version="1.1">
  <g
     inkscape:label="Layer 1"
     inkscape:groupmode="layer"
     id="layer1"
     transform="translate(10.519826,-241.38111)">
    <path
       style="fill:#dc1354;fill-rule:nonzero;stroke:none"
       d="m 375.35232,445.86902 c -19.40152,0 -35.17059,15.76907 -35.17059,35.12784 0,19.35878 15.76907,35.14922 35.17059,35.14922 19.33741,0 35.12784,-15.79044 35.12784,-35.14922 0,-19.35877 -15.79043,-35.12784 -35.12784,-35.12784"
       id="path85487" />
    <path
       style="fill:#dc1354;fill-rule:nonzero;stroke:none"
       d="m 253.72962,443.39041 -3.50424,1.41024 c -2.37177,0 -4.16662,-0.61965 -5.34182,-1.90169 -1.1752,-1.3034 -2.26494,-4.01705 -3.41877,-8.20504 l -33.73897,-129.14399 -65.9395,0 -30.91849,129.14399 c -1.06837,4.55123 -2.2863,7.54265 -3.69655,8.88879 l -4.97858,2.094 c -4.252091,0 -7.457187,-3.65381 -9.487081,-10.98279 l -42.79871,-129.14399 -60.426735,0 56.66609,168.50256 c 3.440136,9.97853 7.179414,17.9699 11.153733,23.88865 3.995685,5.91874 9.444348,10.44861 16.345987,13.67507 6.965741,3.16236 15.704969,4.76491 26.388616,4.76491 27.79887,0 45.53373,-14.48703 53.09776,-43.50383 l 22.88438,-87.62731 23.99548,86.21707 c 2.62818,9.03837 6.23925,16.90153 10.74775,23.54677 4.50851,6.62386 10.17084,11.88022 16.96564,15.6836 6.85891,3.78201 14.89301,5.6837 24.05959,5.6837 6.26062,0 12.84175,-1.79485 19.76475,-5.36319 6.90164,-3.54698 13.3332,-8.80333 19.27331,-15.81181 5.91875,-6.98711 10.49135,-15.08532 13.65371,-24.33736 l 78.63168,-229.48484 -59.0806,0 -66.96513,195.29716 c -1.21793,3.61107 -2.47861,5.76917 -3.3333,6.70933"
       id="path85491" />
    <path
       style="fill:#dc1354;fill-rule:nonzero;stroke:none"
       d="m 375.35232,516.14608 c -19.40152,0 -35.17059,-15.79044 -35.17059,-35.14922 0,-19.35877 15.76907,-35.12784 35.17059,-35.12784 19.33741,0 35.12784,15.76907 35.12784,35.12784 0,19.35878 -15.79043,35.14922 -35.12784,35.14922"
       id="path85495" />
  </g>
</svg>
